# xmcd
#
# Track frame offsets:
#	150
#	16787
#	31975
#	43335
#	65310
#	79697
#	93790
#	106827
#	110837
#	123987
#
# Disc length: 1829 seconds
#
# Revision: 1
# Processed by: cddbd v1.5.1PL0 Copyright (c) Steve Scherf et al.
# Submitted via: CDex 1.50Beta5
#
DISCID=7507230a
DTITLE=melting holidays - cherry wine
DYEAR=2002
DGENRE=
TTITLE0=cherry wine
TTITLE1=snippy girl
TTITLE2=biscuit in my pocket
TTITLE3=dancing doll
TTITLE4=umbrella
TTITLE5=jeux d’ enfant
TTITLE6=bunny hop lollipop crazy baby
TTITLE7=innerflight
TTITLE8=wondergarden
TTITLE9=strawberry love song
EXTD=
EXTT0=
EXTT1=
EXTT2=
EXTT3=
EXTT4=
EXTT5=
EXTT6=
EXTT7=
EXTT8=
EXTT9=
PLAYORDER=
